<svg xmlns="http://www.w3.org/2000/svg" viewBox="0 0 140 160" fill="none">
  <!-- Cup body -->
  <path d="M18 40 L22 140 Q22 152 36 152 L96 152 Q110 152 110 140 L114 40 Z" fill="#2A1E14"/>
  <path d="M18 40 L22 140 Q22 152 36 152 L96 152 Q110 152 110 140 L114 40 Z" fill="url(#mg)"/>
  <!-- Rim ellipse -->
  <ellipse cx="66" cy="40" rx="48" ry="12" fill="#3A2A1C"/>
  <ellipse cx="66" cy="40" rx="48" ry="12" fill="url(#mr)"/>
  <!-- Coffee surface -->
  <ellipse cx="66" cy="40" rx="40" ry="8" fill="#4A2C14" opacity="0.9"/>
  <ellipse cx="60" cy="38" rx="16" ry="4" fill="rgba(200,140,80,0.2)" transform="rotate(-8,60,38)"/>
  <!-- Handle outer -->
  <path d="M114 72 C140 72 148 98 140 112 C134 124 118 124 114 124" stroke="#2A1E14" stroke-width="18" stroke-linecap="round" fill="none"/>
  <path d="M114 72 C138 72 146 98 138 112 C132 122 118 122 114 122" stroke="#4A3422" stroke-width="10" stroke-linecap="round" fill="none"/>
  <!-- Highlight on body -->
  <path d="M28 50 L30 130" stroke="rgba(240,200,140,0.12)" stroke-width="6" stroke-linecap="round"/>
  <!-- Rim highlight -->
  <ellipse cx="50" cy="37" rx="12" ry="3" fill="rgba(255,236,196,0.14)" transform="rotate(-10,50,37)"/>
  <defs>
    <linearGradient id="mg" x1="0" y1="0" x2="1" y2="1">
      <stop offset="0%" stop-color="#8B5E3C" stop-opacity="0.5"/>
      <stop offset="100%" stop-color="#0E0806" stop-opacity="0.5"/>
    </linearGradient>
    <radialGradient id="mr" cx="40%" cy="40%" r="70%">
      <stop offset="0%" stop-color="#C4956A" stop-opacity="0.5"/>
      <stop offset="100%" stop-color="#1A1008" stop-opacity="0.3"/>
    </radialGradient>
  </defs>
</svg>
